<svg width="80" height="80" viewBox="0 0 80 80" fill="none" xmlns="http://www.w3.org/2000/svg">
<path d="M40 25V40" stroke="#2B63E3" stroke-width="7" stroke-linecap="round" stroke-linejoin="round"/>
<path d="M52.9904 47.5L40 40" stroke="#2B63E3" stroke-width="7" stroke-linecap="round" stroke-linejoin="round"/>
<path d="M57.5518 31.1613H70.0518V18.6613" stroke="#2B63E3" stroke-width="7" stroke-linecap="round" stroke-linejoin="round"/>
<path d="M59.4454 59.4454C55.5995 63.2914 50.6995 65.9105 45.365 66.9716C40.0305 68.0327 34.5012 67.4881 29.4762 65.4067C24.4512 63.3253 20.1563 59.8005 17.1346 55.2782C14.1128 50.7558 12.5 45.439 12.5 40C12.5 34.561 14.1128 29.2442 17.1346 24.7218C20.1563 20.1995 24.4512 16.6747 29.4762 14.5933C34.5012 12.5119 40.0305 11.9673 45.365 13.0284C50.6995 14.0895 55.5995 16.7086 59.4454 20.5546L70.052 31.1612" stroke="#2B63E3" stroke-width="7" stroke-linecap="round" stroke-linejoin="round"/>
</svg>
