<svg width="72" height="72" viewBox="0 0 72 72" fill="none" xmlns="http://www.w3.org/2000/svg">
<circle cx="36" cy="36" r="36" fill="#2B63E3"/>
<path d="M31 20.5H41C41.3315 20.5 41.6495 20.3683 41.8839 20.1339C42.1183 19.8995 42.25 19.5815 42.25 19.25C42.25 18.9185 42.1183 18.6005 41.8839 18.3661C41.6495 18.1317 41.3315 18 41 18H31C30.6685 18 30.3505 18.1317 30.1161 18.3661C29.8817 18.6005 29.75 18.9185 29.75 19.25C29.75 19.5815 29.8817 19.8995 30.1161 20.1339C30.3505 20.3683 30.6685 20.5 31 20.5Z" fill="white"/>
<path d="M44.75 23.0012H27.25C26.2558 23.0023 25.3026 23.3977 24.5995 24.1008C23.8965 24.8038 23.5011 25.757 23.5 26.7512V50.5012C23.5011 51.4954 23.8965 52.4486 24.5995 53.1517C25.3026 53.8547 26.2558 54.2501 27.25 54.2512H44.75C45.7442 54.2501 46.6974 53.8547 47.4005 53.1517C48.1035 52.4486 48.4989 51.4954 48.5 50.5012V26.7512C48.4989 25.757 48.1035 24.8038 47.4005 24.1008C46.6974 23.3977 45.7442 23.0023 44.75 23.0012ZM39.6609 39.0901L37.1609 45.3401C37.0379 45.648 36.7976 45.8944 36.4929 46.0251C36.1882 46.1558 35.844 46.1601 35.5361 46.0371C35.2282 45.9141 34.9818 45.6738 34.8511 45.3691C34.7204 45.0644 34.7161 44.7202 34.8391 44.4124L36.6543 39.8762L33.5 39.8738C33.2958 39.8738 33.0946 39.8237 32.9142 39.728C32.7338 39.6323 32.5796 39.4938 32.465 39.3247C32.3505 39.1556 32.2791 38.961 32.2572 38.758C32.2352 38.5549 32.2634 38.3496 32.3391 38.1599L34.8391 31.9124C34.9621 31.6045 35.2024 31.3581 35.5071 31.2273C35.8118 31.0966 36.156 31.0923 36.4639 31.2153C36.7718 31.3384 37.0182 31.5787 37.1489 31.8834C37.2796 32.1881 37.2839 32.5322 37.1609 32.8401L35.3457 37.3738L38.5 37.3762C38.7042 37.3762 38.9054 37.4263 39.0858 37.522C39.2662 37.6177 39.4204 37.7562 39.535 37.9253C39.6495 38.0944 39.7209 38.289 39.7428 38.492C39.7648 38.6951 39.7366 38.9004 39.6609 39.0901Z" fill="white"/>
</svg>
