<svg width="80" height="80" viewBox="0 0 80 80" fill="none" xmlns="http://www.w3.org/2000/svg">
<path fill-rule="evenodd" clip-rule="evenodd" d="M17.039 15.2959C16.6749 15.4254 16.1696 15.8444 15.4101 16.6469C14.8045 17.2867 13.7929 18.493 13.1622 19.3275C12.5316 20.162 11.6659 21.4089 11.2387 22.0983C10.8115 22.7877 10.0304 24.2424 9.50284 25.331C8.97546 26.4195 8.24818 28.2008 7.88665 29.2893C7.52513 30.3778 7.08219 31.981 6.90235 32.8518C6.72238 33.7226 6.49517 34.9695 6.3974 35.6226C6.28234 36.3906 6.22072 38.0224 6.2227 40.2407C6.22508 42.849 6.28089 44.0148 6.45532 45.105C6.58146 45.8935 6.83374 47.1997 7.01582 48.0077C7.1979 48.8158 7.61696 50.2784 7.94722 51.258C8.27734 52.2377 8.97823 53.9299 9.50469 55.0185C10.0311 56.107 10.8115 57.5617 11.2387 58.2511C11.6659 58.9405 12.5298 60.1874 13.1584 61.0219C13.7869 61.8565 14.8281 63.0846 15.4721 63.7512C16.3562 64.6661 16.7738 65.0007 17.1762 65.1162C17.5698 65.2292 17.8498 65.2314 18.2475 65.1244C18.5435 65.0447 18.9345 64.8624 19.1162 64.7195C19.2979 64.5766 19.543 64.2562 19.6611 64.0073C19.7792 63.7585 19.8758 63.3452 19.8758 63.0887C19.8758 62.8322 19.8194 62.4744 19.7507 62.2935C19.682 62.1126 19.1426 61.4407 18.552 60.8005C17.9615 60.1603 17.0747 59.102 16.5813 58.4488C16.0879 57.7955 15.3481 56.7267 14.9372 56.0738C14.5265 55.4208 13.8728 54.2334 13.4847 53.4351C13.0966 52.6369 12.5574 51.39 12.2866 50.6643C12.0157 49.9386 11.6001 48.573 11.363 47.6296C11.126 46.6862 10.8268 45.2018 10.6981 44.331C10.5364 43.236 10.4643 41.954 10.4643 40.1747C10.4643 38.3954 10.5364 37.1135 10.6981 36.0185C10.8268 35.1476 11.126 33.6633 11.363 32.7199C11.6001 31.7765 12.0151 30.4108 12.2853 29.6851C12.5554 28.9594 13.1308 27.6433 13.5641 26.7603C13.9973 25.8775 14.7786 24.5119 15.3005 23.7256C15.8222 22.9395 16.5834 21.8806 16.9921 21.3726C17.4008 20.8647 18.1853 19.9542 18.7355 19.3497C19.4302 18.5862 19.7622 18.1102 19.822 17.7919C19.8692 17.5398 19.8746 17.1285 19.834 16.878C19.7933 16.6273 19.633 16.2437 19.4776 16.0256C19.3223 15.8075 19.0346 15.546 18.8383 15.4445C18.6418 15.3429 18.2754 15.2257 18.0239 15.184C17.7649 15.1412 17.338 15.1896 17.039 15.2959ZM61.2273 15.3566C60.9299 15.4917 60.5552 15.7868 60.3946 16.0123C60.234 16.2378 60.0694 16.6273 60.0287 16.878C59.9881 17.1285 59.9939 17.5422 60.0416 17.7969C60.103 18.1239 60.4252 18.5825 61.1357 19.3547C61.6898 19.9566 62.4995 20.8943 62.9352 21.4386C63.371 21.9829 64.1356 23.0516 64.6346 23.8136C65.1335 24.5756 65.8901 25.9115 66.316 26.7824C66.7418 27.6532 67.3103 28.9594 67.5794 29.6851C67.8484 30.4108 68.2626 31.7765 68.4997 32.7199C68.7367 33.6633 69.0359 35.1476 69.1646 36.0185C69.3263 37.1135 69.3984 38.3954 69.3984 40.1747C69.3984 41.954 69.3263 43.236 69.1646 44.331C69.0359 45.2018 68.7367 46.6862 68.4997 47.6296C68.2626 48.573 67.847 49.9386 67.5761 50.6643C67.3053 51.39 66.7661 52.6369 66.378 53.4351C65.9898 54.2334 65.3362 55.4208 64.9254 56.0738C64.5146 56.7267 63.7748 57.7955 63.2814 58.4488C62.7879 59.102 61.9011 60.1603 61.3107 60.8005C60.7201 61.4407 60.1807 62.1126 60.112 62.2935C60.0432 62.4744 59.9869 62.8421 59.9869 63.1107C59.9869 63.3793 60.0968 63.8058 60.2313 64.0588C60.3656 64.3116 60.6638 64.6471 60.894 64.8043C61.1241 64.9614 61.5446 65.1292 61.8283 65.1773C62.2016 65.2402 62.5035 65.1939 62.9205 65.0094C63.2961 64.8433 63.8489 64.3687 64.5077 63.6468C65.0636 63.0377 65.8522 62.1237 66.2601 61.6157C66.6678 61.1077 67.4772 59.9796 68.0587 59.1087C68.6402 58.2379 69.5756 56.6007 70.1371 55.4705C70.6988 54.3403 71.4087 52.7097 71.7148 51.8472C72.0209 50.9845 72.4446 49.5937 72.6561 48.7562C72.8677 47.9189 73.1316 46.6994 73.2426 46.0462C73.3534 45.3931 73.5028 44.2947 73.5744 43.6053C73.6459 42.9159 73.7045 41.3721 73.7045 40.1747C73.7045 38.9773 73.6459 37.4336 73.5744 36.7442C73.5028 36.0548 73.3534 34.9563 73.2426 34.3032C73.1316 33.6501 72.8677 32.4305 72.6561 31.5932C72.4446 30.7557 72.0209 29.3649 71.7148 28.5023C71.4087 27.6397 70.6995 26.0092 70.1387 24.8789C69.5779 23.7487 68.619 22.0756 68.0077 21.1609C67.3964 20.2461 66.5143 19.0297 66.0475 18.4576C65.5807 17.8856 64.8128 17.007 64.3411 16.5052C63.8694 16.0034 63.2459 15.4845 62.9556 15.352C62.6654 15.2195 62.2794 15.1111 62.098 15.1111C61.9166 15.1111 61.5247 15.2217 61.2273 15.3566ZM42.4917 17.8634C42.0017 18.0859 41.2119 19.1543 33.9986 29.3508C29.6245 35.534 25.9855 40.7889 25.912 41.0284C25.8384 41.268 25.8161 41.6637 25.8621 41.9079C25.9083 42.152 26.0658 42.5483 26.2123 42.7883C26.3659 43.0403 26.7143 43.3319 27.0365 43.4781C27.5476 43.71 27.9364 43.7317 31.6518 43.7343C33.8833 43.7359 35.7091 43.7878 35.7091 43.8495C35.7091 43.9113 34.7866 47.6928 33.659 52.2529C32.1894 58.1966 31.6326 60.6586 31.6925 60.948C31.7385 61.1701 31.904 61.5456 32.0603 61.7826C32.2167 62.0194 32.586 62.3312 32.881 62.4753C33.176 62.6194 33.5877 62.7372 33.7959 62.7372C34.0041 62.7372 34.4211 62.6178 34.7227 62.4717C35.2077 62.237 36.2901 60.8187 44.1125 50.1679C48.9753 43.5468 53.1856 37.805 53.4687 37.4082C53.9201 36.7754 53.9834 36.5959 53.9834 35.9466C53.9834 35.339 53.9172 35.1194 53.6137 34.7216C53.4104 34.4551 53.0719 34.1479 52.8616 34.0392C52.5444 33.8752 51.7346 33.8414 48.1124 33.8414H43.7457L43.8187 33.4126C43.8588 33.1768 44.2466 30.1634 44.6804 26.7164C45.1144 23.2693 45.4915 20.2727 45.5185 20.0573C45.5456 19.8418 45.5111 19.4559 45.4421 19.1996C45.373 18.9434 45.1587 18.5631 44.9659 18.3547C44.7732 18.1462 44.4243 17.8938 44.1908 17.7939C43.9572 17.694 43.601 17.6135 43.3991 17.6151C43.1972 17.6167 42.7889 17.7285 42.4917 17.8634ZM22.8435 21.299C22.6978 21.3581 22.1838 21.8145 21.7012 22.3131C21.2186 22.8119 20.5577 23.5492 20.2323 23.9518C19.9071 24.3543 19.2454 25.2874 18.7619 26.0254C18.2785 26.7632 17.5363 28.0964 17.1127 28.9879C16.6891 29.8794 16.1899 31.0572 16.0032 31.6053C15.8166 32.1534 15.5154 33.1925 15.3337 33.9144C15.152 34.6362 14.9122 35.9276 14.8007 36.7839C14.6892 37.6403 14.598 39.1661 14.598 40.1747C14.598 41.1833 14.6892 42.7091 14.8007 43.5656C14.9122 44.4219 15.1461 45.6867 15.3205 46.3761C15.4951 47.0655 15.7962 48.1046 15.9898 48.6851C16.1835 49.2657 16.6885 50.4701 17.1123 51.3615C17.5361 52.253 18.2785 53.5862 18.7619 54.324C19.2454 55.062 19.9071 55.9951 20.2323 56.3977C20.5577 56.8002 21.2182 57.5372 21.7002 58.0352C22.1822 58.5333 22.715 58.9936 22.8841 59.0578C23.0531 59.1221 23.4707 59.1747 23.8121 59.1747C24.2524 59.1747 24.5701 59.0813 24.9062 58.8529C25.1666 58.676 25.4772 58.3255 25.5965 58.0743C25.7158 57.8231 25.813 57.3593 25.8128 57.0437C25.8125 56.7154 25.7075 56.3004 25.5673 56.074C25.4325 55.8563 24.8936 55.2032 24.3698 54.6226C23.846 54.0421 23.0071 52.9562 22.5056 52.2096C22.004 51.463 21.3595 50.3614 21.0733 49.7617C20.787 49.1618 20.3982 48.2603 20.2091 47.7581C20.0201 47.2559 19.7239 46.2794 19.5509 45.588C19.3778 44.8966 19.162 43.856 19.0711 43.2754C18.9803 42.6949 18.9059 41.2995 18.9059 40.1747C18.9059 39.0499 18.9803 37.6546 19.0711 37.074C19.162 36.4935 19.3778 35.4528 19.5509 34.7614C19.7239 34.07 20.0201 33.0935 20.2091 32.5913C20.3982 32.0892 20.787 31.1876 21.0733 30.5878C21.3595 29.9881 22.004 28.8865 22.5056 28.1398C23.0071 27.3933 23.846 26.3074 24.3698 25.7268C24.8936 25.1462 25.4325 24.4931 25.5673 24.2754C25.7075 24.049 25.8125 23.634 25.8128 23.3058C25.813 22.9901 25.7158 22.5264 25.5965 22.2751C25.4772 22.0239 25.1666 21.6735 24.9062 21.4965C24.5528 21.2565 24.2644 21.1768 23.7705 21.183C23.4064 21.1877 22.9893 21.2398 22.8435 21.299ZM55.0105 21.4509C54.7772 21.6004 54.4654 21.9181 54.3178 22.157C54.1436 22.4389 54.0495 22.8173 54.0499 23.2354C54.0502 23.6402 54.1435 24.0267 54.3007 24.2754C54.4384 24.4931 54.9764 25.1462 55.4964 25.7268C56.0163 26.3074 56.8407 27.3761 57.3282 28.1018C57.8157 28.8275 58.4602 29.9259 58.7603 30.5428C59.0605 31.1596 59.4615 32.0783 59.6516 32.5844C59.8416 33.0904 60.1388 34.07 60.3117 34.7614C60.4849 35.4528 60.7007 36.4935 60.7916 37.074C60.8824 37.6546 60.9568 39.0499 60.9568 40.1747C60.9568 41.2995 60.8824 42.6949 60.7916 43.2754C60.7007 43.856 60.4849 44.8966 60.3117 45.588C60.1388 46.2794 59.8416 47.2591 59.6516 47.7651C59.4615 48.2711 59.0605 49.1898 58.7603 49.8067C58.4602 50.4235 57.8157 51.5219 57.3282 52.2476C56.8407 52.9733 56.0163 54.0421 55.4964 54.6226C54.9764 55.2032 54.4384 55.8563 54.3007 56.074C54.1543 56.3056 54.0502 56.708 54.0499 57.0437C54.0497 57.3593 54.1469 57.8231 54.2662 58.0743C54.3855 58.3255 54.6961 58.676 54.9565 58.8529C55.2926 59.0813 55.6103 59.1747 56.0506 59.1747C56.3919 59.1747 56.8095 59.1221 56.9786 59.0578C57.1477 58.9936 57.6805 58.5333 58.1625 58.0352C58.6445 57.5372 59.305 56.8002 59.6304 56.3977C59.9556 55.9951 60.6173 55.062 61.1008 54.324C61.5842 53.5862 62.3269 52.253 62.751 51.3615C63.1752 50.4701 63.7316 49.0876 63.9874 48.2893C64.2433 47.491 64.5454 46.4371 64.6589 45.947C64.7723 45.4571 64.955 44.3705 65.0649 43.5323C65.1748 42.6942 65.2647 41.1833 65.2647 40.1747C65.2647 39.1661 65.1748 37.6552 65.0649 36.8171C64.955 35.9789 64.7723 34.8923 64.6589 34.4024C64.5454 33.9124 64.2433 32.8584 63.9874 32.0601C63.7316 31.2619 63.1752 29.8794 62.751 28.9879C62.3269 28.0964 61.5842 26.7632 61.1008 26.0254C60.6173 25.2874 59.9556 24.3543 59.6304 23.9518C59.305 23.5492 58.6445 22.8123 58.1625 22.3142C57.6805 21.8161 57.1477 21.3559 56.9786 21.2916C56.8095 21.2274 56.393 21.1758 56.053 21.177C55.6573 21.1784 55.2822 21.277 55.0105 21.4509Z" fill="#2B63E3"/>
</svg>
