<svg width="80" height="80" viewBox="0 0 80 80" fill="none" xmlns="http://www.w3.org/2000/svg">
<path fill-rule="evenodd" clip-rule="evenodd" d="M42.1578 6.06463C41.3013 6.09594 41.063 6.12579 41.0122 6.20827C40.9768 6.26554 38.2741 11.4671 35.0062 17.7672C31.7382 24.0674 27.9057 31.4557 26.4894 34.1858L23.9145 39.1496L29.33 39.1924C32.3086 39.2159 34.8612 39.2591 35.0025 39.2883C35.1438 39.3174 35.2593 39.353 35.2593 39.3675C35.2593 39.3819 34.8855 40.151 34.4287 41.0766C33.9719 42.0022 32.1032 45.7118 30.2762 49.3201C28.4491 52.9283 25.6287 58.4891 24.0084 61.6774C22.3882 64.8656 20.4472 68.6751 19.695 70.1428C18.9429 71.6105 18.1871 73.0788 18.0155 73.4057L17.7034 74L18.0644 73.6529C18.263 73.462 19.8325 71.7594 21.5522 69.8693C23.2718 67.9793 29.3947 61.2157 35.1585 54.8392C40.9223 48.4627 48.4581 40.1248 51.9047 36.3104C55.3514 32.4961 58.18 29.3533 58.1907 29.3263C58.2014 29.2994 57.2767 29.2573 56.1358 29.2328C54.995 29.2083 51.8114 29.1681 49.0613 29.1436C46.3112 29.1191 43.9341 29.0798 43.7789 29.0564L43.4967 29.0138L49.0441 20.5789C52.0952 15.9397 55.4961 10.7616 56.6017 9.07198L58.612 6L50.9256 6.01257C46.698 6.01944 42.7525 6.04283 42.1578 6.06463ZM35.7834 8.95382C35.4124 9.00505 34.7651 9.11294 34.345 9.19354C33.9249 9.27421 33.1497 9.44929 32.6222 9.58272C32.0948 9.71608 31.3088 9.93685 30.8756 10.0732C30.4423 10.2096 29.7334 10.4548 29.3002 10.6181C28.8669 10.7814 28.1426 11.0783 27.6905 11.2778C27.2384 11.4773 26.5603 11.7967 26.1836 11.9873C25.8069 12.178 25.1442 12.5386 24.7109 12.7885C24.2777 13.0385 23.5311 13.5017 23.0519 13.818C22.5726 14.1342 21.8055 14.68 21.347 15.0308C20.8887 15.3816 20.1866 15.9506 19.7868 16.2952C19.3871 16.6399 18.5965 17.3932 18.03 17.9693C17.4634 18.5455 16.6924 19.3917 16.3165 19.8499C15.9406 20.3081 15.4458 20.9329 15.2168 21.2384C14.9879 21.5438 14.5501 22.1732 14.2439 22.6368C13.9375 23.1005 13.4822 23.8346 13.2319 24.2683C12.9815 24.7019 12.531 25.5539 12.2305 26.1618C11.9301 26.7696 11.4903 27.7542 11.2532 28.3498C11.0161 28.9455 10.6653 29.9239 10.4735 30.5242C10.2818 31.1244 10.0015 32.1235 9.85093 32.7444C9.70024 33.3654 9.49988 34.342 9.40563 34.9148C9.31145 35.4875 9.18165 36.4403 9.1172 37.0322C9.03322 37.803 9 38.6892 9 40.1562C9 41.6321 9.03295 42.5035 9.11788 43.2755C9.18268 43.8648 9.32666 44.8861 9.43783 45.5453C9.54893 46.2044 9.77757 47.2844 9.94593 47.9451C10.1142 48.6059 10.4036 49.5995 10.5889 50.1531C10.7742 50.7068 11.0738 51.5347 11.2547 51.9929C11.4356 52.451 11.9103 53.482 12.3097 54.2838C12.709 55.0857 13.2483 56.0854 13.5082 56.5054C13.768 56.9254 14.2639 57.6751 14.6102 58.1715C14.9564 58.6679 15.5316 59.4399 15.8884 59.8871C16.2452 60.3343 16.8824 61.0885 17.3043 61.5631C17.7263 62.0377 18.3402 62.6745 18.6686 62.9783C18.9969 63.2821 19.5222 63.7545 19.8359 64.028C20.1496 64.3015 20.427 64.5119 20.4523 64.4954C20.4777 64.479 20.9895 63.4668 21.5896 62.2462L22.6809 60.027L22.3431 59.6477C22.1573 59.439 21.5928 58.8188 21.0886 58.2693C20.5843 57.7197 19.9108 56.9418 19.5918 56.5406C19.2728 56.1394 18.6836 55.311 18.2824 54.6997C17.8813 54.0885 17.3555 53.218 17.114 52.7655C16.8725 52.313 16.4826 51.5154 16.2476 50.9932C16.0127 50.4709 15.6754 49.6386 15.4983 49.1438C15.3211 48.6489 15.0435 47.7754 14.8813 47.2027C14.7191 46.6299 14.5075 45.7708 14.4111 45.2935C14.3145 44.8162 14.1832 43.9415 14.1192 43.3497C14.0363 42.5836 14.0016 41.6537 13.9987 40.1215C13.9962 38.818 14.0301 37.6135 14.0846 37.0669C14.1341 36.5705 14.2352 35.8363 14.3094 35.4354C14.3836 35.0345 14.5543 34.2691 14.6889 33.7346C14.8233 33.2 15.1011 32.267 15.3062 31.6611C15.5112 31.0553 15.818 30.2295 15.9881 29.8259C16.1582 29.4223 16.4376 28.8089 16.609 28.4628C16.7804 28.1168 17.0757 27.5524 17.2651 27.2088C17.4545 26.8651 17.8948 26.1466 18.2435 25.612C18.5922 25.0775 19.2098 24.2184 19.616 23.7029C20.0221 23.1874 20.88 22.2325 21.5224 21.5809C22.1647 20.9292 22.9677 20.1613 23.3068 19.8744C23.6458 19.5874 24.233 19.1162 24.6116 18.8273C24.9903 18.5382 25.6067 18.1013 25.9815 17.8562C26.3564 17.6112 26.9473 17.247 27.2945 17.047C27.6418 16.8469 28.3662 16.4697 28.9042 16.2088C29.4422 15.9479 30.3139 15.5717 30.8413 15.373C31.3688 15.1741 32.2626 14.8787 32.8277 14.7165C33.3928 14.5542 34.0583 14.3677 34.3065 14.302L34.7578 14.1826L35.8926 11.9831C36.5167 10.7733 37.1094 9.61639 37.2097 9.41208C37.31 9.20777 37.3755 8.99686 37.3553 8.94347C37.3287 8.87343 37.1987 8.84836 36.8882 8.8535C36.6517 8.85746 36.1544 8.90258 35.7834 8.95382ZM55.8922 13.7317C55.7404 13.8985 55.2178 14.6405 54.7308 15.3805C54.2438 16.1204 53.763 16.8692 53.6623 17.0444C53.5617 17.2195 53.4793 17.3946 53.4793 17.4334C53.4793 17.4722 53.7028 17.6541 53.9759 17.8376C54.249 18.0212 54.7191 18.3592 55.0204 18.5889C55.3218 18.8184 55.9075 19.2932 56.3219 19.6439C56.7363 19.9946 57.4355 20.6218 57.8758 21.0376C58.316 21.4535 58.9921 22.1374 59.378 22.5574C59.7641 22.9774 60.3226 23.6295 60.6192 24.0064C60.9158 24.3833 61.3371 24.9613 61.5554 25.2908C61.7736 25.6202 62.1757 26.2795 62.449 26.7559C62.7223 27.2323 63.0809 27.8944 63.2458 28.2272C63.4107 28.5601 63.7272 29.2637 63.9489 29.7909C64.1707 30.318 64.478 31.1143 64.6319 31.5602C64.7857 32.0062 65.035 32.8341 65.1859 33.3999C65.3368 33.9658 65.5229 34.7506 65.5994 35.144C65.6759 35.5373 65.7904 36.334 65.8539 36.9143C65.9372 37.6765 65.9698 38.5859 65.9715 40.1909C65.9728 41.5331 65.939 42.7422 65.886 43.2455C65.8378 43.7037 65.7369 44.4066 65.6619 44.8076C65.5869 45.2085 65.4327 45.9114 65.3193 46.3696C65.2059 46.8278 65.004 47.5463 64.8707 47.9663C64.7373 48.3863 64.4661 49.1517 64.268 49.6672C64.0698 50.1826 63.7395 50.9649 63.534 51.4055C63.3285 51.8462 62.9674 52.5491 62.7317 52.9676C62.496 53.386 61.9838 54.2127 61.5934 54.8045C61.203 55.3963 60.624 56.2086 60.3068 56.6095C59.9896 57.0104 59.4186 57.6728 59.038 58.0815C58.6574 58.4902 58.0483 59.1086 57.6845 59.4556C57.3208 59.8028 56.6496 60.3904 56.193 60.7613C55.7365 61.1324 54.993 61.6885 54.541 61.9972C54.0889 62.3057 53.4454 62.7211 53.1109 62.9201C52.7765 63.1192 52.071 63.5013 51.5431 63.7694C51.0153 64.0374 50.2409 64.3993 49.8223 64.5735C49.4038 64.7478 48.6606 65.0276 48.1708 65.1953C47.6811 65.363 46.9321 65.5924 46.5064 65.7052C46.0807 65.8179 45.3563 65.9863 44.8967 66.0795C44.4371 66.1727 43.7683 66.2844 43.4104 66.3278C43.0525 66.3713 42.1354 66.4319 41.3726 66.4626C40.6097 66.4933 39.3614 66.4933 38.5985 66.4626C37.8356 66.4319 36.9186 66.3711 36.5608 66.3275C36.2029 66.2838 35.5526 66.1724 35.1158 66.0799C34.679 65.9873 33.9238 65.8013 33.4376 65.6664C32.9515 65.5317 32.2455 65.324 31.8688 65.205C31.4921 65.0859 30.7746 64.8368 30.2744 64.6512C29.4157 64.3327 29.3541 64.3196 29.1697 64.4162C29.0623 64.4725 28.574 64.9492 28.0846 65.4757C27.5952 66.0022 26.8825 66.7873 26.5008 67.2206C26.1192 67.654 25.8074 68.0288 25.808 68.0537C25.8086 68.0786 26.2632 68.3142 26.8183 68.5773C27.3734 68.8403 28.2436 69.2251 28.7522 69.4324C29.2608 69.6397 30.1238 69.9503 30.6701 70.1225C31.2164 70.2947 32.0953 70.5415 32.6233 70.6708C33.1513 70.8001 34.0298 70.9841 34.5754 71.0796C35.1211 71.175 36.0145 71.3083 36.5608 71.3756C37.337 71.4713 38.0851 71.4981 39.9856 71.4983C41.8956 71.4986 42.636 71.472 43.4373 71.3746C43.9983 71.3064 44.9059 71.1723 45.454 71.0767C46.0022 70.9811 46.9285 70.7793 47.5125 70.6283C48.0965 70.4773 49.023 70.2015 49.5713 70.0155C50.1196 69.8294 50.8813 69.5511 51.2641 69.3969C51.6467 69.2427 52.4063 68.9088 52.9519 68.6549C53.4974 68.401 54.4327 67.9123 55.0301 67.5688C55.6275 67.2253 56.5941 66.6199 57.1781 66.2234C57.762 65.8269 58.6078 65.212 59.0576 64.857C59.5074 64.5019 60.2982 63.8292 60.8149 63.3621C61.3317 62.8951 62.1254 62.1141 62.5788 61.6266C63.0322 61.1391 63.7277 60.3371 64.1245 59.8445C64.5212 59.3519 65.0751 58.6177 65.3553 58.213C65.6356 57.8084 66.0593 57.1649 66.297 56.7831C66.5347 56.4012 67.0705 55.4015 67.4876 54.5615C67.9048 53.7215 68.4545 52.5377 68.7093 51.9309C68.9641 51.324 69.3071 50.4151 69.4716 49.9111C69.6361 49.4071 69.8949 48.493 70.0468 47.8798C70.1987 47.2667 70.4007 46.3168 70.4958 45.7689C70.5909 45.2211 70.7138 44.4136 70.769 43.9745C70.8242 43.5354 70.9058 42.5982 70.9504 41.8918C70.9991 41.1207 71.0135 40.0803 70.9866 39.2884C70.9619 38.5629 70.8956 37.5164 70.8391 36.9627C70.7827 36.4091 70.6596 35.4875 70.5656 34.9148C70.4715 34.342 70.2544 33.2955 70.083 32.5891C69.9117 31.8827 69.6183 30.8391 69.4311 30.2699C69.244 29.7007 68.9349 28.8416 68.7444 28.3607C68.5539 27.8799 68.1237 26.9241 67.7886 26.2369C67.4534 25.5496 66.8939 24.5112 66.5452 23.9293C66.1966 23.3475 65.6433 22.4884 65.3157 22.0202C64.9882 21.552 64.357 20.716 63.9132 20.1623C63.4692 19.6087 62.5351 18.5745 61.8374 17.8641C61.1395 17.1538 60.2604 16.324 59.8837 16.0201C59.5069 15.7162 58.8807 15.2234 58.4922 14.925C58.1036 14.6266 57.4734 14.1678 57.0918 13.9054C56.7102 13.6429 56.3462 13.4283 56.283 13.4283C56.2198 13.4283 56.0439 13.5648 55.8922 13.7317Z" fill="#2B63E3"/>
</svg>
