<svg width="72" height="72" viewBox="0 0 72 72" fill="none" xmlns="http://www.w3.org/2000/svg">
<circle cx="36" cy="36" r="36" fill="#2B63E3"/>
<path d="M20.9997 47.6667V22.6667C20.9997 22.2246 21.1753 21.8007 21.4878 21.4882C21.8004 21.1756 22.2243 21 22.6663 21H37.6663C38.1084 21 38.5323 21.1756 38.8449 21.4882C39.1574 21.8007 39.333 22.2246 39.333 22.6667V36H42.6663C43.5504 36 44.3982 36.3512 45.0234 36.9763C45.6485 37.6014 45.9997 38.4493 45.9997 39.3333V46C45.9997 46.442 46.1753 46.866 46.4878 47.1785C46.8004 47.4911 47.2243 47.6667 47.6663 47.6667C48.1084 47.6667 48.5323 47.4911 48.8449 47.1785C49.1574 46.866 49.333 46.442 49.333 46V34.3333H45.9997C45.5576 34.3333 45.1337 34.1577 44.8212 33.8452C44.5086 33.5326 44.333 33.1087 44.333 32.6667V26.69L41.5713 23.9283L43.928 21.5717L52.178 29.8217C52.333 29.9762 52.4559 30.1599 52.5397 30.3621C52.6235 30.5643 52.6666 30.7811 52.6663 31V46C52.6663 47.3261 52.1396 48.5979 51.2019 49.5355C50.2642 50.4732 48.9924 51 47.6663 51C46.3403 51 45.0685 50.4732 44.1308 49.5355C43.1931 48.5979 42.6663 47.3261 42.6663 46V39.3333H39.333V47.6667H40.9997V51H19.333V47.6667H20.9997ZM30.9997 34.3333V27.6667L24.333 37.6667H29.333V44.3333L35.9997 34.3333H30.9997Z" fill="white"/>
</svg>
