<svg width="80" height="80" viewBox="0 0 80 80" fill="none" xmlns="http://www.w3.org/2000/svg">
<path d="M9.99935 63.3333V13.3333C9.99935 12.4493 10.3505 11.6014 10.9757 10.9763C11.6008 10.3512 12.4486 10 13.3327 10H43.3327C44.2167 10 45.0646 10.3512 45.6897 10.9763C46.3148 11.6014 46.666 12.4493 46.666 13.3333V40H53.3327C55.1008 40 56.7965 40.7024 58.0467 41.9526C59.297 43.2029 59.9993 44.8986 59.9993 46.6667V60C59.9993 60.8841 60.3505 61.7319 60.9757 62.357C61.6008 62.9821 62.4486 63.3333 63.3327 63.3333C64.2167 63.3333 65.0646 62.9821 65.6897 62.357C66.3148 61.7319 66.666 60.8841 66.666 60V36.6667H59.9993C59.1153 36.6667 58.2674 36.3155 57.6423 35.6904C57.0172 35.0652 56.666 34.2174 56.666 33.3333V21.38L51.1427 15.8567L55.856 11.1433L72.356 27.6433C72.666 27.9525 72.9119 28.3198 73.0795 28.7242C73.2471 29.1287 73.3331 29.5622 73.3327 30V60C73.3327 62.6522 72.2791 65.1957 70.4038 67.0711C68.5284 68.9464 65.9848 70 63.3327 70C60.6805 70 58.137 68.9464 56.2616 67.0711C54.3862 65.1957 53.3327 62.6522 53.3327 60V46.6667H46.666V63.3333H49.9993V70H6.66602V63.3333H9.99935ZM29.9993 36.6667V23.3333L16.666 43.3333H26.666V56.6667L39.9993 36.6667H29.9993Z" fill="#2B63E3"/>
</svg>
