<svg width="80" height="80" viewBox="0 0 80 80" fill="none" xmlns="http://www.w3.org/2000/svg">
<path d="M30.0003 70C30.0003 71.6666 31.3337 73.3333 33.3337 73.3333H46.667C48.667 73.3333 50.0003 71.6666 50.0003 70V66.6666H30.0003V70ZM40.0003 6.66663C27.0003 6.66663 16.667 17 16.667 30C16.667 38 20.667 45 26.667 49V56.6666C26.667 58.3333 28.0003 60 30.0003 60H50.0003C52.0003 60 53.3337 58.3333 53.3337 56.6666V49C59.3337 44.6666 63.3337 37.6666 63.3337 30C63.3337 17 53.0003 6.66663 40.0003 6.66663Z" fill="#2B63E3"/>
</svg>
