<svg width="72" height="72" viewBox="0 0 72 72" fill="none" xmlns="http://www.w3.org/2000/svg">
<circle cx="36" cy="36" r="36" fill="#2B63E3"/>
<path d="M30.6667 23L40.6667 23H44H50.6667C51.1087 23 51.5326 23.1756 51.8452 23.4882C52.1577 23.8007 52.3333 24.2246 52.3333 24.6667V48C52.3333 48.442 52.1577 48.8659 51.8452 49.1785C51.5326 49.4911 51.1087 49.6667 50.6667 49.6667H20.6667C20.2246 49.6667 19.8007 49.4911 19.4882 49.1785C19.1756 48.8659 19 48.442 19 48V24.6667C19 24.2246 19.1756 23.8007 19.4882 23.4882C19.8007 23.1756 20.2246 23 20.6667 23H27.3333L30.6667 23ZM35.6667 46.3333C38.3188 46.3333 40.8624 45.2798 42.7377 43.4044C44.6131 41.529 45.6667 38.9855 45.6667 36.3333C45.6667 33.6812 44.6131 31.1376 42.7377 29.2623C40.8624 27.3869 38.3188 26.3333 35.6667 26.3333C33.0145 26.3333 30.471 27.3869 28.5956 29.2623C26.7202 31.1376 25.6667 33.6812 25.6667 36.3333C25.6667 38.9855 26.7202 41.529 28.5956 43.4044C30.471 45.2798 33.0145 46.3333 35.6667 46.3333ZM35.6667 43C33.8986 43 32.2029 42.2976 30.9526 41.0474C29.7024 39.7971 29 38.1014 29 36.3333C29 34.5652 29.7024 32.8695 30.9526 31.6193C32.2029 30.369 33.8986 29.6667 35.6667 29.6667C37.4348 29.6667 39.1305 30.369 40.3807 31.6193C41.631 32.8695 42.3333 34.5652 42.3333 36.3333C42.3333 38.1014 41.631 39.7971 40.3807 41.0474C39.1305 42.2976 37.4348 43 35.6667 43Z" fill="white"/>
</svg>
