<svg width="80" height="80" viewBox="0 0 80 80" fill="none" xmlns="http://www.w3.org/2000/svg">
<path fill-rule="evenodd" clip-rule="evenodd" d="M27.724 6.47095C27.0309 7.16401 26.9058 7.41911 26.9058 8.13952C26.9058 8.60727 27.0375 9.23789 27.1983 9.54115C27.3591 9.84421 29.4713 12.0658 31.8919 14.4779L36.2932 18.8638L32.8897 22.2716L29.4862 25.6793L24.6393 20.9981L19.7922 16.3167H18.8352C17.9956 16.3167 17.7809 16.4138 17.0858 17.1089C16.3848 17.8101 16.2936 18.0144 16.2936 18.8848V19.8681L21.0344 24.6248L25.7754 29.3814L22.314 32.8473L18.8524 36.3134L14.1546 31.6369C10.2105 27.7105 9.33807 26.9387 8.71623 26.8246C8.22236 26.734 7.78072 26.7901 7.3897 26.9934C7.06746 27.1611 6.60766 27.5136 6.36807 27.7769C6.12848 28.0401 5.86705 28.4701 5.78746 28.7324C5.70787 28.9946 5.70562 29.5456 5.78256 29.9569C5.90032 30.585 6.66032 31.4467 10.5411 35.3514L15.1597 39.9983L10.5005 44.6607C6.02664 49.1379 5.83746 49.3593 5.73868 50.235C5.67032 50.8407 5.74338 51.3548 5.95583 51.7654C6.13174 52.1056 6.59195 52.5342 6.97868 52.7177C7.36542 52.9011 7.97093 53.0514 8.3244 53.0514C8.67766 53.0514 9.21481 52.9197 9.51807 52.7589C9.82113 52.5981 12.0428 50.4858 14.4548 48.0652L18.8407 43.664L22.2485 47.0675L25.6562 50.4709L20.975 55.3179L16.2936 60.165V61.122C16.2936 61.9667 16.3895 62.175 17.1117 62.8971C17.895 63.6803 17.974 63.7109 18.9699 63.6152L20.0099 63.5152L24.6821 58.8465L29.3542 54.1777L32.8221 57.6411L36.2903 61.1048L31.6195 65.8026C27.9613 69.4818 26.9172 70.6489 26.8042 71.1856C26.704 71.6603 26.7691 72.1138 27.016 72.6611C27.2689 73.2222 27.6193 73.5709 28.224 73.8636C28.6924 74.0903 29.2348 74.2758 29.4293 74.2758C29.624 74.2758 30.077 74.1291 30.4364 73.9497C30.7956 73.7703 33.086 71.6369 35.5262 69.2087L39.963 64.7936L44.6079 69.4114C48.1632 72.9456 49.4083 74.0616 49.9154 74.1685C50.2797 74.2452 50.8966 74.2028 51.2862 74.0742C51.6758 73.9456 52.227 73.564 52.5113 73.2262C52.9162 72.745 53.0283 72.3869 53.0283 71.5742V70.5365L48.3379 65.8187L43.6477 61.1009L47.0644 57.6887L50.4811 54.2763L54.867 58.6775C57.2791 61.0981 59.5007 63.2103 59.8038 63.3711C60.107 63.532 60.6581 63.6622 61.0283 63.6605C61.3987 63.6589 61.9285 63.5428 62.2058 63.4026C62.483 63.2622 62.9193 62.8367 63.1752 62.4571C63.4311 62.0773 63.6405 61.4985 63.6405 61.1709C63.6405 60.8436 63.5348 60.375 63.4056 60.1297C63.2766 59.8846 61.1695 57.6114 58.7236 55.0783L54.276 50.4726L57.6848 47.0683L61.0934 43.664L65.4793 48.0652C67.8913 50.4858 70.113 52.5981 70.416 52.7589C70.7193 52.9197 71.2703 53.0499 71.6405 53.0483C72.0109 53.0467 72.5407 52.9305 72.8181 52.7903C73.0952 52.6499 73.5315 52.2244 73.7874 51.8448C74.0434 51.465 74.2528 50.8863 74.2528 50.5587C74.2528 50.2314 74.1511 49.7628 74.027 49.5175C73.903 49.2724 71.7685 47.0285 69.2838 44.5309L64.7664 39.9901L69.2838 35.4493C71.7685 32.9518 73.903 30.7079 74.027 30.4628C74.1511 30.2175 74.2528 29.7769 74.2528 29.4832C74.2528 29.1897 74.1168 28.6867 73.9507 28.3654C73.7846 28.0442 73.4048 27.5895 73.1068 27.355C72.7207 27.0514 72.2705 26.9289 71.5393 26.9289H70.5134L65.7964 31.6185L61.0795 36.3081L57.6703 32.8991L54.2613 29.4899L58.9509 24.773L63.6405 20.056V19.0301C63.6405 18.2989 63.5181 17.8487 63.2144 17.4626C62.9799 17.1646 62.5252 16.7848 62.204 16.6187C61.8828 16.4526 61.3797 16.3167 61.0862 16.3167C60.7926 16.3167 60.3519 16.4224 60.1066 16.5516C59.8615 16.6805 57.5883 18.7877 55.0552 21.2336L50.4495 25.6812L47.0452 22.2724L43.6409 18.8638L48.2332 14.275C51.3256 11.1848 52.8983 9.46564 53.0483 9.01095C53.1709 8.63952 53.2152 8.11278 53.1468 7.84013C53.0783 7.56768 52.7444 7.02789 52.4046 6.64095C52.0648 6.2538 51.515 5.87748 51.183 5.80462C50.8509 5.73156 50.2809 5.73605 49.916 5.81462C49.4105 5.92319 48.147 7.05462 44.6058 10.5699L39.9589 15.1828L35.2905 10.5177L30.6222 5.85278L29.5821 5.75278C28.5862 5.65707 28.5073 5.68768 27.724 6.47095ZM43.4372 26.0114L46.8007 29.3795L43.3989 32.7814L39.9968 36.1832L36.5015 32.845L33.006 29.5067L36.4332 26.0748C38.3183 24.1875 39.9085 22.6432 39.967 22.6432C40.0258 22.6432 41.5872 24.1589 43.4372 26.0114ZM53.9352 43.4695L50.4558 46.9489L47.1313 43.4695L43.8068 39.9901L47.1313 36.5107L50.4558 33.0314L53.9352 36.5107L57.4146 39.9901L53.9352 43.4695ZM32.8101 36.6087L36.1587 39.9618L32.8203 43.4573L29.4821 46.9528L26.0015 43.4722L22.5211 39.9918L25.8846 36.6236C27.7346 34.7712 29.296 33.2554 29.3548 33.2554C29.4136 33.2554 30.9683 34.7644 32.8101 36.6087ZM43.4966 47.1932L46.924 50.5003L43.4448 53.9683L39.9656 57.436L36.5495 54.0199L33.1334 50.604L36.4968 47.2358C38.3468 45.3834 39.9072 43.8718 39.9648 43.8769C40.0221 43.882 41.6115 45.3742 43.4966 47.1932Z" fill="#2B63E3"/>
</svg>
