<svg width="80" height="80" viewBox="0 0 80 80" fill="none" xmlns="http://www.w3.org/2000/svg">
<path fill-rule="evenodd" clip-rule="evenodd" d="M6 21.8667C6 13.1037 13.1037 6 21.8667 6H58.1333C66.8962 6 74 13.1037 74 21.8667C74 30.6296 66.8963 37.7333 58.1333 37.7333H21.8667C13.1038 37.7333 6 30.6296 6 21.8667ZM21.8667 15.0667C25.6222 15.0667 28.6667 18.1111 28.6667 21.8667C28.6667 25.6222 25.6222 28.6667 21.8667 28.6667C18.1111 28.6667 15.0667 25.6222 15.0667 21.8667C15.0667 18.1111 18.1111 15.0667 21.8667 15.0667Z" fill="#2B63E3"/>
<path fill-rule="evenodd" clip-rule="evenodd" d="M74 58.1333C74 66.8963 66.8963 74 58.1333 74L21.8667 74C13.1038 74 6 66.8962 6 58.1333C6 49.3704 13.1038 42.2667 21.8667 42.2667L58.1333 42.2667C66.8963 42.2667 74 49.3704 74 58.1333ZM58.1333 64.9333C54.3778 64.9333 51.3333 61.8889 51.3333 58.1333C51.3333 54.3778 54.3778 51.3333 58.1333 51.3333C61.8889 51.3333 64.9333 54.3778 64.9333 58.1333C64.9333 61.8889 61.8889 64.9333 58.1333 64.9333Z" fill="#2B63E3"/>
</svg>
