<svg width="80" height="80" viewBox="0 0 80 80" fill="none" xmlns="http://www.w3.org/2000/svg">
<path d="M72.3667 67.6334L51.3667 46.6667H56.6667C57.5508 46.6667 58.3986 46.3155 59.0237 45.6904C59.6489 45.0653 60 44.2174 60 43.3334C60 42.4493 59.6489 41.6015 59.0237 40.9764C58.3986 40.3512 57.5508 40 56.6667 40H44.7L63.5667 21.1334C63.9156 20.8346 64.1991 20.4668 64.3991 20.0533C64.5992 19.6397 64.7116 19.1893 64.7294 18.7302C64.7471 18.2712 64.6698 17.8134 64.5022 17.3856C64.3346 16.9579 64.0804 16.5694 63.7555 16.2445C63.4307 15.9197 63.0422 15.6655 62.6145 15.4979C62.1867 15.3303 61.7289 15.253 61.2699 15.2707C60.8108 15.2885 60.3604 15.4009 59.9468 15.601C59.5333 15.801 59.1655 16.0844 58.8667 16.4334L40 35.3V23.3334C40 22.4493 39.6489 21.6015 39.0237 20.9764C38.3986 20.3512 37.5508 20 36.6667 20C35.7827 20 34.9348 20.3512 34.3097 20.9764C33.6846 21.6015 33.3334 22.4493 33.3334 23.3334V28.6334L12.3667 7.63338C12.0559 7.32259 11.687 7.07605 11.2809 6.90785C10.8748 6.73965 10.4396 6.65308 10 6.65308C9.56052 6.65308 9.12529 6.73965 8.71922 6.90785C8.31314 7.07605 7.94418 7.32259 7.63338 7.63338C7.0057 8.26106 6.65308 9.11238 6.65308 10C6.65308 10.8877 7.0057 11.739 7.63338 12.3667L28.6334 33.3334H23.3334C22.4493 33.3334 21.6015 33.6846 20.9764 34.3097C20.3512 34.9348 20 35.7827 20 36.6667C20 37.5508 20.3512 38.3986 20.9764 39.0237C21.6015 39.6489 22.4493 40 23.3334 40H35.3L16.4334 58.8667C15.8125 59.4913 15.4641 60.3361 15.4641 61.2167C15.4641 62.0973 15.8125 62.9422 16.4334 63.5667C17.0579 64.1875 17.9028 64.536 18.7834 64.536C19.664 64.536 20.5088 64.1875 21.1334 63.5667L40 44.7V56.6667C40 57.5508 40.3512 58.3986 40.9764 59.0237C41.6015 59.6489 42.4493 60 43.3334 60C44.2174 60 45.0653 59.6489 45.6904 59.0237C46.3155 58.3986 46.6667 57.5508 46.6667 56.6667V51.3667L67.6334 72.3667C67.9433 72.6791 68.3119 72.9271 68.7181 73.0964C69.1243 73.2656 69.56 73.3527 70 73.3527C70.4401 73.3527 70.8758 73.2656 71.282 73.0964C71.6882 72.9271 72.0568 72.6791 72.3667 72.3667C72.6791 72.0568 72.9271 71.6882 73.0964 71.282C73.2656 70.8758 73.3527 70.4401 73.3527 70C73.3527 69.56 73.2656 69.1243 73.0964 68.7181C72.9271 68.3119 72.6791 67.9433 72.3667 67.6334Z" fill="#2B63E3"/>
</svg>
