<svg width="80" height="80" viewBox="0 0 80 80" fill="none" xmlns="http://www.w3.org/2000/svg">
<path d="M70.0003 53.3333C69.1163 53.3333 68.2684 53.6845 67.6433 54.3096C67.0182 54.9347 66.667 55.7826 66.667 56.6666V61.9666L44.7003 40L51.8003 32.9333C52.428 32.3056 52.7806 31.4543 52.7806 30.5666C52.7806 29.679 52.428 28.8276 51.8003 28.2C51.1726 27.5723 50.3213 27.2197 49.4337 27.2197C48.546 27.2197 47.6947 27.5723 47.067 28.2L40.0003 35.3L18.0337 13.3333H23.3337C24.2177 13.3333 25.0656 12.9821 25.6907 12.357C26.3158 11.7319 26.667 10.884 26.667 9.99996C26.667 9.1159 26.3158 8.26806 25.6907 7.64294C25.0656 7.01782 24.2177 6.66663 23.3337 6.66663H10.0003C9.56473 6.67189 9.1344 6.76249 8.73366 6.93329C7.91916 7.27154 7.27191 7.91879 6.93366 8.73329C6.76286 9.13403 6.67226 9.56437 6.66699 9.99996V23.3333C6.66699 24.2173 7.01818 25.0652 7.6433 25.6903C8.26842 26.3154 9.11627 26.6666 10.0003 26.6666C10.8844 26.6666 11.7322 26.3154 12.3573 25.6903C12.9825 25.0652 13.3337 24.2173 13.3337 23.3333V18.0333L35.3003 40L28.2003 47.0666C27.8879 47.3765 27.6399 47.7452 27.4707 48.1514C27.3015 48.5576 27.2143 48.9933 27.2143 49.4333C27.2143 49.8733 27.3015 50.309 27.4707 50.7152C27.6399 51.1214 27.8879 51.4901 28.2003 51.8C28.5118 52.1089 28.8812 52.3533 29.2873 52.5192C29.6934 52.6851 30.1283 52.7692 30.567 52.7666C31.0057 52.7692 31.4406 52.6851 31.8467 52.5192C32.2528 52.3533 32.6222 52.1089 32.9337 51.8L40.0003 44.7L61.967 66.6666H56.667C55.7829 66.6666 54.9351 67.0178 54.31 67.6429C53.6848 68.2681 53.3337 69.1159 53.3337 70C53.3337 70.884 53.6848 71.7319 54.31 72.357C54.9351 72.9821 55.7829 73.3333 56.667 73.3333H70.0003C70.4359 73.328 70.8662 73.2374 71.267 73.0666C72.0815 72.7284 72.7287 72.0811 73.067 71.2666C73.2378 70.8659 73.3284 70.4356 73.3337 70V56.6666C73.3337 55.7826 72.9825 54.9347 72.3574 54.3096C71.7322 53.6845 70.8844 53.3333 70.0003 53.3333Z" fill="#2B63E3"/>
</svg>
