<svg width="72" height="72" viewBox="0 0 72 72" fill="none" xmlns="http://www.w3.org/2000/svg">
<circle cx="36" cy="36" r="36" fill="#2B63E3"/>
<path d="M43.1932 23.4611C41.2629 21.2322 39.0908 19.2248 36.7169 17.476C36.5068 17.3289 36.2565 17.25 36 17.25C35.7435 17.25 35.4932 17.3289 35.2831 17.476C32.9092 19.2248 30.7371 21.2322 28.8068 23.4611C24.5173 28.3939 22.25 33.5943 22.25 38.5C22.25 42.1468 23.6987 45.6441 26.2773 48.2228C28.8559 50.8014 32.3533 52.25 36 52.25C39.6467 52.25 43.1441 50.8014 45.7227 48.2228C48.3013 45.6441 49.75 42.1468 49.75 38.5C49.75 33.5943 47.4827 28.3939 43.1932 23.4611ZM44.6269 39.9682C44.3233 41.7535 43.4719 43.4 42.1906 44.6797C40.9093 45.9594 39.2617 46.8088 37.4761 47.1102C37.1491 47.1652 36.8137 47.0881 36.5437 46.8958C36.2736 46.7035 36.091 46.4118 36.036 46.0849C35.981 45.758 36.0581 45.4226 36.2504 45.1525C36.4427 44.8824 36.7344 44.6998 37.0613 44.6448C38.335 44.4299 39.5103 43.824 40.4242 42.9112C41.3381 41.9984 41.9455 40.8239 42.162 39.5505C42.2174 39.2236 42.4004 38.9321 42.6707 38.7402C42.941 38.5482 43.2765 38.4715 43.6034 38.5269C43.9302 38.5823 44.2217 38.7653 44.4137 39.0356C44.6056 39.3059 44.6823 39.6414 44.6269 39.9682Z" fill="white"/>
</svg>
