<svg width="80" height="80" viewBox="0 0 80 80" fill="none" xmlns="http://www.w3.org/2000/svg">
<path d="M6.8663 33.5334C8.5663 35.2334 11.2663 35.4001 13.0996 33.8667C28.6663 21.0667 51.2663 21.0667 66.8663 33.8334C68.733 35.3667 71.4663 35.2334 73.1663 33.5334C75.133 31.5667 74.9996 28.3001 72.833 26.5334C53.7996 10.9667 26.2663 10.9667 7.19963 26.5334C5.03296 28.2667 4.8663 31.5334 6.8663 33.5334ZM32.733 59.4001L37.633 64.3001C38.933 65.6001 41.033 65.6001 42.333 64.3001L47.233 59.4001C48.7996 57.8334 48.4663 55.1334 46.4663 54.1001C42.3996 52.0001 37.533 52.0001 33.433 54.1001C31.533 55.1334 31.1663 57.8334 32.733 59.4001ZM20.2996 46.9667C21.933 48.6001 24.4996 48.7667 26.3996 47.4001C34.533 41.6334 45.4663 41.6334 53.5996 47.4001C55.4996 48.7334 58.0663 48.6001 59.6996 46.9667L59.733 46.9334C61.733 44.9334 61.5996 41.5334 59.2996 39.9001C47.833 31.6001 32.1996 31.6001 20.6996 39.9001C18.3996 41.5667 18.2663 44.9334 20.2996 46.9667Z" fill="#2B63E3"/>
</svg>
